HIERARCHY
ROOT Hips
{
    OFFSET 0.000000 0.000000 0.000000
    CHANNELS 6 Xposition Yposition Zposition Zrotation Xrotation Yrotation
    JOINT Spine
    {
        OFFSET -0.000000 7.246840 0.000000
        CHANNELS 3 Zrotation Xrotation Yrotation
        JOINT Spine1
        {
            OFFSET -0.000000 20.289354 0.000000
            CHANNELS 3 Zrotation Xrotation Yrotation
            JOINT Neck
            {
                OFFSET -0.000000 20.206032 1.836912
                CHANNELS 3 Zrotation Xrotation Yrotation
                JOINT Head
                {
                    OFFSET -0.000000 12.372654 -1.767522
                    CHANNELS 3 Zrotation Xrotation Yrotation
                    End Site
                    {
                        OFFSET -0.000000 22.094025 0.000000
                    }
                }
            }
            JOINT LeftShoulder
            {
                OFFSET 3.465871 17.201674 -0.568930
                CHANNELS 3 Zrotation Xrotation Yrotation
                JOINT LeftArm
                {
                    OFFSET 14.070313 0.000000 0.000000
                    CHANNELS 3 Zrotation Xrotation Yrotation
                    JOINT LeftForeArm
                    {
                        OFFSET 26.549477 0.000000 0.000000
                        CHANNELS 3 Zrotation Xrotation Yrotation
                        JOINT LeftHand
                        {
                            OFFSET 18.880413 0.000000 0.000000
                            CHANNELS 3 Zrotation Xrotation Yrotation
                            End Site
                            {
                                OFFSET 13.256415 0.000000 0.000000
                            }
                        }
                    }
                }
            }
            JOINT RightShoulder
            {
                OFFSET -3.526370 17.201674 -0.568930
                CHANNELS 3 Zrotation Xrotation Yrotation
                JOINT RightArm
                {
                    OFFSET -14.070313 0.000000 0.000000
                    CHANNELS 3 Zrotation Xrotation Yrotation
                    JOINT RightForeArm
                    {
                        OFFSET -26.549477 0.000000 0.000000
                        CHANNELS 3 Zrotation Xrotation Yrotation
                        JOINT RightHand
                        {
                            OFFSET -18.880413 0.000000 0.000000
                            CHANNELS 3 Zrotation Xrotation Yrotation
                            End Site
                            {
                                OFFSET -13.256415 0.000000 0.000000
                            }
                        }
                    }
                }
            }
        }
    }
    JOINT LeftUpLeg
    {
        OFFSET 8.837609 0.000000 0.000000
        CHANNELS 3 Zrotation Xrotation Yrotation
        JOINT LeftLeg
        {
            OFFSET -0.000000 -41.345005 0.000000
            CHANNELS 3 Zrotation Xrotation Yrotation
            JOINT LeftFoot
            {
                OFFSET -0.000000 -35.500874 0.000000
                CHANNELS 3 Zrotation Xrotation Yrotation
                JOINT LeftToeBase
                {
                    OFFSET -0.000000 -5.744446 13.256415
                    CHANNELS 3 Zrotation Xrotation Yrotation
                    End Site
                    {
                        OFFSET -0.000000 0.000000 3.535044
                    }
                }
            }
        }
    }
    JOINT RightUpLeg
    {
        OFFSET -8.837609 0.000000 0.000000
        CHANNELS 3 Zrotation Xrotation Yrotation
        JOINT RightLeg
        {
            OFFSET -0.000000 -41.345005 0.000000
            CHANNELS 3 Zrotation Xrotation Yrotation
            JOINT RightFoot
            {
                OFFSET -0.000000 -35.500874 0.000000
                CHANNELS 3 Zrotation Xrotation Yrotation
                JOINT RightToeBase
                {
                    OFFSET -0.000000 -5.744446 13.256415
                    CHANNELS 3 Zrotation Xrotation Yrotation
                    End Site
                    {
                        OFFSET -0.000000 0.000000 3.535044
                    }
                }
            }
        }
    }
}
MOTION
Frames:    13
Frame Time:    0.010000
0.141656    82.369484    -24.840277    2.867556    5.360922    2.574890    -2.758990    -14.221461    -0.334350    -0.753311    0.610204    0.020232    -1.060669    31.882349    -3.011068    4.912771    -7.732826    -2.273508    17.560452    2.896140    7.009809    -35.479366    9.277124    -13.781701    7.331053    -9.049167    -12.568854    -25.285259    -6.577531    -7.507607    -14.750188    -1.490723    13.859480    24.685188    6.829880    7.777674    -3.362166    -7.161528    7.883775    -2.667135    -7.156743    9.723809    -4.082568    4.382408    0.241324    -2.364946    -10.449651    -4.992646    4.769642    2.255986    -2.662177    -0.258174    -0.095721    0.361633    -8.675832    1.303187    2.677526    8.309802    -10.396525    3.846319    -1.743027    1.611095    -10.195923    -0.504421    1.639559    0.888981    
0.117231    82.372246    -24.827959    2.872184    5.360201    2.586099    -2.796692    -14.222350    -0.348969    -0.718849    0.617907    -0.004342    -1.020011    31.909506    -3.003340    4.903868    -7.801666    -2.258455    17.580923    2.907170    7.009193    -35.483639    9.299007    -13.771666    7.360875    -9.025187    -12.528571    -25.281641    -6.538793    -7.571012    -14.731253    -1.479430    13.852132    24.674934    6.800944    7.795247    -3.346771    -7.173452    7.900727    -2.656462    -7.168609    9.736239    -4.077307    4.384754    0.208167    -2.352187    -10.438293    -4.947727    4.584285    2.202260    -2.526316    -0.058747    -0.035153    0.082260    -8.671277    1.309188    2.681657    8.326409    -10.386963    3.826630    -1.736326    1.589214    -10.182315    -0.491363    1.664143    0.865746    
0.087920    82.373337    -24.815754    2.870840    5.363951    2.603625    -2.849709    -14.232075    -0.380062    -0.656371    0.636580    -0.021184    -1.033691    31.903669    -2.993444    4.961504    -7.827067    -2.237100    17.572662    2.903461    7.006300    -35.452732    9.263601    -13.760864    7.337271    -9.001448    -12.491091    -25.289696    -6.507155    -7.625505    -14.734247    -1.484120    13.849343    24.690214    6.802600    7.789649    -3.351573    -7.189107    7.924409    -2.632517    -7.181090    9.730441    -4.066812    4.378221    0.244405    -2.340119    -10.411788    -4.977774    4.572308    2.186547    -2.547769    -0.042646    -0.063297    0.059724    -8.648507    1.311796    2.649341    8.330165    -10.376568    3.817988    -1.807967    1.596997    -10.153556    -0.522545    1.644667    0.920873    
0.061698    82.371529    -24.801905    2.874883    5.366416    2.638069    -2.901199    -14.242448    -0.415798    -0.615152    0.657201    -0.050982    -0.986633    32.009457    -3.046356    4.973490    -8.024543    -2.275170    17.579451    2.918189    7.011937    -35.434128    9.202417    -13.763466    7.320664    -9.003417    -12.460073    -25.294355    -6.499259    -7.685185    -14.725925    -1.486683    13.854070    24.701057    6.777471    7.775861    -3.331315    -7.198256    7.954485    -2.663207    -7.192667    9.701092    -4.053452    4.385360    0.230884    -2.327543    -10.423913    -5.003495    4.539461    2.191015    -2.536140    -0.054660    -0.057075    0.076546    -8.644717    1.332478    2.647475    8.343546    -10.385659    3.853469    -1.726703    1.580091    -10.215708    -0.486118    1.535006    0.857661    
0.034456    82.368774    -24.787685    2.875717    5.372385    2.676283    -2.965817    -14.259614    -0.453817    -0.549451    0.678329    -0.079429    -0.997038    32.006477    -3.044623    5.014119    -8.052993    -2.265172    17.585464    2.902514    7.001227    -35.435997    9.137823    -13.734240    7.319576    -9.010140    -12.458936    -25.307533    -6.503608    -7.692601    -14.718614    -1.481539    13.850613    24.702988    6.762932    7.774778    -3.322073    -7.185987    7.955188    -2.687293    -7.182358    9.671618    -4.038759    4.386196    0.243823    -2.337640    -10.416888    -4.955715    4.568496    2.173083    -2.632842    -0.095648    -0.062065    0.133950    -8.627848    1.353035    2.633082    8.340878    -10.401795    3.808193    -1.736471    1.569495    -10.185660    -0.485119    1.544332    0.855814    
0.009777    82.365128    -24.772005    2.881082    5.377835    2.723099    -3.030554    -14.282343    -0.495549    -0.499998    0.713321    -0.112851    -0.968621    31.987532    -3.042809    5.023746    -8.089432    -2.255066    17.591249    2.898380    6.998182    -35.417580    9.069318    -13.717646    7.335770    -9.005835    -12.472486    -25.345873    -6.501121    -7.660751    -14.715092    -1.497586    13.859547    24.716908    6.778444    7.747443    -3.300134    -7.185347    7.952679    -2.734305    -7.186934    9.658890    -4.030308    4.394255    0.252466    -2.314901    -10.430253    -5.068083    4.540677    2.175081    -2.553376    -0.063985    -0.034635    0.089594    -8.623035    1.378263    2.625728    8.356170    -10.420163    3.804661    -1.740552    1.552821    -10.209144    -0.476356    1.528846    0.840493    
-0.014977    82.360397    -24.757572    2.882548    5.383903    2.764869    -3.085590    -14.302305    -0.528843    -0.454133    0.741594    -0.138886    -1.005743    31.966213    -3.031934    5.113663    -8.105135    -2.229607    17.590792    2.890713    6.979642    -35.380550    8.983737    -13.693366    7.317967    -8.930994    -12.466475    -25.240606    -6.443890    -7.623323    -14.707868    -1.495444    13.854935    24.723907    6.767357    7.747799    -3.291490    -7.175105    7.916363    -2.740788    -7.178585    9.646544    -4.013812    4.402769    0.244235    -2.342121    -10.433435    -4.984246    4.555834    2.161813    -2.670259    -0.057401    -0.083703    0.080398    -8.613811    1.400768    2.652052    8.358438    -10.437778    3.810750    -1.833713    1.534432    -10.242846    -0.481470    1.620203    0.848705    
-0.039124    82.355713    -24.741234    2.884111    5.391804    2.812010    -3.154867    -14.326008    -0.568474    -0.380823    0.771931    -0.169578    -1.015138    31.950375    -3.038488    5.126634    -8.143760    -2.233295    17.590801    2.856442    6.979266    -35.558907    8.329725    -13.759967    7.371755    -8.535179    -12.325680    -25.287169    -6.054380    -7.585182    -14.728990    -1.498320    13.852961    24.749563    6.738681    7.741656    -3.283398    -7.174984    7.869248    -2.740779    -7.181089    9.676903    -3.994059    4.410479    0.238234    -2.329752    -10.458688    -5.126047    4.675480    2.219083    -2.706970    -0.273181    -0.135424    0.382744    -8.600685    1.423706    2.659051    8.356310    -10.458351    3.804776    -1.844514    1.524424    -10.296987    -0.502767    1.639488    0.886067    
-0.060311    82.351341    -24.725040    2.886665    5.392416    2.847327    -3.207160    -14.343330    -0.588964    -0.339526    0.804327    -0.182945    -0.991700    31.922876    -3.049542    5.136360    -8.166656    -2.237824    17.595930    2.866784    6.964271    -35.519737    8.307773    -13.777205    7.387495    -8.530200    -12.333117    -25.209702    -6.053107    -7.582569    -14.725945    -1.488067    13.835540    24.765659    6.689683    7.730187    -3.271626    -7.181214    7.818788    -2.722330    -7.189060    9.721160    -3.976677    4.428680    0.230423    -2.364155    -10.462830    -5.033760    4.556313    2.153895    -2.690530    -0.062673    -0.100104    0.087791    -8.595698    1.447517    2.681888    8.360845    -10.471555    3.790243    -1.793513    1.517434    -10.334978    -0.455623    1.530389    0.803899    
-0.082164    82.348022    -24.709650    2.880587    5.400781    2.883493    -3.255009    -14.364526    -0.612514    -0.282261    0.829633    -0.200375    -0.993580    31.915396    -3.052996    5.146360    -8.223682    -2.237014    17.585625    2.849040    6.951858    -35.474575    8.313019    -13.768725    7.391299    -8.534115    -12.323745    -25.119026    -6.047979    -7.652483    -14.741501    -1.475442    13.811531    24.787231    6.682473    7.726144    -3.271777    -7.208707    7.782272    -2.704989    -7.216782    9.748818    -3.953009    4.435265    0.232534    -2.364166    -10.475110    -5.055980    4.709776    2.195817    -2.836189    -0.254372    -0.178057    0.356483    -8.577456    1.460956    2.699984    8.361351    -10.478082    3.783742    -1.831545    1.506406    -10.382271    -0.489790    1.539949    0.864095    
-0.102854    82.345222    -24.693005    2.877669    5.402936    2.911544    -3.296555    -14.380328    -0.631110    -0.240831    0.853073    -0.213476    -0.966898    31.886246    -3.071499    5.120770    -8.231884    -2.256940    17.604717    2.849084    6.962085    -35.459412    8.313744    -13.793005    7.397563    -8.539779    -12.315803    -25.039757    -6.042639    -7.726453    -14.750746    -1.459884    13.798441    24.831047    6.540901    7.716367    -3.263345    -7.171248    7.736983    -2.703565    -7.181445    9.764956    -3.934510    4.454115    0.205281    -2.344679    -10.506384    -5.098216    4.496351    2.144656    -2.655799    -0.047615    -0.076157    0.066688    -8.564789    1.476373    2.721869    8.365643    -10.480060    3.772618    -1.842540    1.491540    -10.400094    -0.452371    1.531353    0.798153    
-0.123007    82.343590    -24.677891    2.872735    5.412039    2.946964    -3.331137    -14.398808    -0.649045    -0.212209    0.871233    -0.226444    -0.970924    31.857063    -3.078858    5.145206    -8.233894    -2.259628    17.611139    2.834882    6.955189    -35.411270    8.347359    -13.786359    7.381155    -8.566149    -12.334590    -24.949356    -6.054869    -7.822310    -14.742252    -1.443163    13.773932    24.884474    6.304465    7.721144    -3.271635    -7.080113    7.664770    -2.684212    -7.090562    9.781687    -3.903479    4.459525    0.173508    -2.357678    -10.517254    -5.144701    4.463328    2.144955    -2.618851    -0.051895    -0.088047    0.072688    -8.547706    1.482678    2.698637    8.372186    -10.475402    3.783468    -1.895138    1.489658    -10.421232    -0.479770    1.523772    0.846560    
-0.142692    82.343712    -24.660078    2.866391    5.408313    2.976519    -3.369256    -14.410348    -0.667137    -0.165364    0.896945    -0.240045    -0.962619    31.828238    -3.081438    5.122274    -8.243901    -2.265183    17.611685    2.850016    6.976832    -35.371212    8.380690    -13.817928    7.361703    -8.607664    -12.362481    -24.871502    -6.080728    -7.920986    -14.746923    -1.441268    13.766545    24.911221    6.287275    7.676561    -3.274618    -7.102470    7.663373    -2.682633    -7.111661    9.740231    -3.880313    4.483113    0.157223    -2.369642    -10.526981    -5.068041    4.465174    2.123877    -2.704180    -0.058926    -0.083624    0.082534    -8.531989    1.502432    2.709131    8.374402    -10.468801    3.788437    -1.860582    1.455738    -10.451947    -0.453209    1.542941    0.799535    
